# xmcd CD database file
#
# Track frame offsets:
#	150
#	12842
#	23102
#	32945
#	49815
#	63567
#	74917
#	90417
#	102040
#	115272
#	128622
#	141897
#	155222
#	174862
#	187882
#
# Disc length: 2680 seconds
#
# Revision: 0
# Processed by: cddbd v1.5PL3 Copyright (c) Steve Scherf et al.
# Submitted via: CDex 1.50beta9
#
DISCID=ca0a760f
DTITLE=ドリーミング他 - それいけ！アンパンマン全曲集 みんなで歌おうアンパンマン
DYEAR=1990
DGENRE=Anime
TTITLE0=アンパンマンのマーチ
TTITLE1=生きてるパンを作ろう
TTITLE2=いくぞ！ばいきんまん
TTITLE3=アンパンマン音頭’８９
TTITLE4=私はドキンちゃん
TTITLE5=とべ！カレーパンマン
TTITLE6=おなじみしょくぱんマン
TTITLE7=アンパンマン絵かきうた’８９
TTITLE8=てんどんまん自慢歌
TTITLE9=Do You Knowカツドン？
TTITLE10=山育ちかまめしどん
TTITLE11=ずっこけ！ばいきんまん
TTITLE12=ルンルンおむすび仁義
TTITLE13=こむすびまん元気旅
TTITLE14=勇気りんりん
EXTD=YEAR: 1990
EXTT0=
EXTT1=
EXTT2=
EXTT3=
EXTT4=
EXTT5=
EXTT6=
EXTT7=
EXTT8=
EXTT9=
EXTT10=
EXTT11=
EXTT12=
EXTT13=
EXTT14=
PLAYORDER=
